STARTFONT 2.3
FONT -FontForge-Shadows Into Light-Book-R-Normal--14-140-72-72-P-57-ISO10646-1
SIZE 14 72 72  4
FONTBOUNDINGBOX 21 23 -3 -6
COMMENT "Generated by fontforge, http://fontforge.sourceforge.net"
COMMENT "Copyright (c) 2010, Kimberly Geswein (kimberlygeswein.com)"
STARTPROPERTIES 40
FOUNDRY "FontForge"
FAMILY_NAME "Shadows Into Light"
WEIGHT_NAME "Book"
SLANT "R"
SETWIDTH_NAME "Normal"
ADD_STYLE_NAME ""
PIXEL_SIZE 14
POINT_SIZE 140
RESOLUTION_X 72
RESOLUTION_Y 72
SPACING "P"
AVERAGE_WIDTH 57
CHARSET_REGISTRY "ISO10646"
CHARSET_ENCODING "1"
FONTNAME_REGISTRY ""
CHARSET_COLLECTIONS "ISO8859-2 ISO8859-9 ISO8859-4 ISO10646-1"
BITS_PER_PIXEL 4
FONT_NAME "ShadowsIntoLight"
FACE_NAME "Shadows Into Light"
COPYRIGHT "Copyright (c) 2010, Kimberly Geswein (kimberlygeswein.com)"
FONT_VERSION "001.000"
FONT_ASCENT 11
FONT_DESCENT 3
UNDERLINE_POSITION 0
UNDERLINE_THICKNESS 0
X_HEIGHT 8
CAP_HEIGHT 9
RAW_ASCENT 799
RAW_DESCENT 200
NORM_SPACE 6
RELATIVE_WEIGHT 40
RELATIVE_SETWIDTH 50
SUPERSCRIPT_X 0
SUPERSCRIPT_Y 6
SUPERSCRIPT_SIZE 9
SUBSCRIPT_X 0
SUBSCRIPT_Y 1
SUBSCRIPT_SIZE 9
AVG_LOWERCASE_WIDTH 52
AVG_UPPERCASE_WIDTH 67
ENDPROPERTIES
CHARS 352
STARTCHAR space
ENCODING 32
SWIDTH 450 0
DWIDTH 6 0
BBX 1 1 0 0
BITMAP
00
ENDCHAR
STARTCHAR exclam
ENCODING 33
SWIDTH 137 0
DWIDTH 2 0
BBX 2 12 0 0
BITMAP
70
90
A0
A0
A0
B0
C2
20
00
00
00
06
ENDCHAR
STARTCHAR quotedbl
ENCODING 34
SWIDTH 212 0
DWIDTH 3 0
BBX 3 4 0 7
BITMAP
9250
7370
6470
4340
ENDCHAR
STARTCHAR numbersign
ENCODING 35
SWIDTH 450 0
DWIDTH 6 0
BBX 7 8 0 1
BITMAP
01071000
06574000
048AB200
1CA66110
0375C700
03C99000
2B909000
00402000
ENDCHAR
STARTCHAR dollar
ENCODING 36
SWIDTH 445 0
DWIDTH 6 0
BBX 6 13 0 -2
BITMAP
003500
006500
008C50
09B500
855500
D26910
378A66
001918
000D91
00AD00
000B00
000820
000210
ENDCHAR
STARTCHAR percent
ENCODING 37
SWIDTH 450 0
DWIDTH 6 0
BBX 6 11 0 0
BITMAP
0001A0
382560
B16A20
A63B00
452800
006423
00818B
008089
007065
016000
023000
ENDCHAR
STARTCHAR ampersand
ENCODING 38
SWIDTH 356 0
DWIDTH 5 0
BBX 5 7 0 1
BITMAP
006000
008000
039550
76EA00
74D300
668300
003100
ENDCHAR
STARTCHAR quotesingle
ENCODING 39
SWIDTH 155 0
DWIDTH 2 0
BBX 2 5 0 4
BITMAP
62
76
56
35
01
ENDCHAR
STARTCHAR parenleft
ENCODING 40
SWIDTH 291 0
DWIDTH 4 0
BBX 4 12 0 0
BITMAP
0004
0065
0290
0920
1900
6400
9100
A000
A000
7300
1A00
0592
ENDCHAR
STARTCHAR parenright
ENCODING 41
SWIDTH 241 0
DWIDTH 3 0
BBX 3 11 0 0
BITMAP
4000
3900
0640
0090
0090
0080
0080
00A0
01A0
0740
0500
ENDCHAR
STARTCHAR asterisk
ENCODING 42
SWIDTH 481 0
DWIDTH 7 0
BBX 7 8 0 0
BITMAP
00601000
0081B000
58AA5520
17FE8400
68EAB400
0B680400
16080000
00010000
ENDCHAR
STARTCHAR plus
ENCODING 43
SWIDTH 466 0
DWIDTH 7 0
BBX 7 7 0 1
BITMAP
00600000
00800000
00802520
13BA7400
66B30000
00730000
00210000
ENDCHAR
STARTCHAR comma
ENCODING 44
SWIDTH 112 0
DWIDTH 2 0
BBX 2 4 0 -2
BITMAP
43
86
73
40
ENDCHAR
STARTCHAR hyphen
ENCODING 45
SWIDTH 399 0
DWIDTH 6 0
BBX 6 3 0 2
BITMAP
000262
26BA61
540000
ENDCHAR
STARTCHAR period
ENCODING 46
SWIDTH 128 0
DWIDTH 2 0
BBX 2 1 0 0
BITMAP
74
ENDCHAR
STARTCHAR slash
ENCODING 47
SWIDTH 306 0
DWIDTH 4 0
BBX 4 12 0 -2
BITMAP
0008
0028
0073
00A0
0190
0540
0900
0900
4500
8100
9000
1000
ENDCHAR
STARTCHAR zero
ENCODING 48
SWIDTH 308 0
DWIDTH 4 0
BBX 4 8 0 0
BITMAP
0270
1837
5208
8108
7108
5308
2628
08B2
ENDCHAR
STARTCHAR one
ENCODING 49
SWIDTH 112 0
DWIDTH 2 0
BBX 2 9 0 0
BITMAP
50
80
81
81
91
91
82
72
62
ENDCHAR
STARTCHAR two
ENCODING 50
SWIDTH 512 0
DWIDTH 7 0
BBX 7 8 0 0
BITMAP
03BC0000
3A173000
40073000
000A1000
001A0000
00650010
01B49A50
05A51000
ENDCHAR
STARTCHAR three
ENCODING 51
SWIDTH 461 0
DWIDTH 6 0
BBX 7 10 0 0
BITMAP
00592000
5B575000
40091000
00850000
06F98700
08300820
00000A10
00007600
001A8000
00760000
ENDCHAR
STARTCHAR four
ENCODING 52
SWIDTH 503 0
DWIDTH 7 0
BBX 7 11 0 0
BITMAP
0000A000
0006F000
001DC000
0076B000
02A0B000
0B21C770
8D88C200
3000B000
0000B000
0000B000
0000A000
ENDCHAR
STARTCHAR five
ENCODING 53
SWIDTH 478 0
DWIDTH 7 0
BBX 7 10 0 0
BITMAP
12014830
AD973100
7A000000
65011000
658AB000
6B30A000
3300A000
00076000
004B0000
00810000
ENDCHAR
STARTCHAR six
ENCODING 54
SWIDTH 375 0
DWIDTH 5 0
BBX 5 12 0 0
BITMAP
021000
083000
0A0000
0A0000
180000
450000
730350
916990
A2A070
982540
6D1A00
1BC200
ENDCHAR
STARTCHAR seven
ENCODING 55
SWIDTH 458 0
DWIDTH 6 0
BBX 6 11 0 0
BITMAP
000134
5ACBBC
100076
0000B1
0000A0
000270
000540
000730
000830
000850
000470
ENDCHAR
STARTCHAR eight
ENCODING 56
SWIDTH 333 0
DWIDTH 5 0
BBX 5 10 0 0
BITMAP
029800
199D10
830610
A00800
642700
09C100
01D200
061700
080610
09A800
ENDCHAR
STARTCHAR nine
ENCODING 57
SWIDTH 475 0
DWIDTH 7 0
BBX 7 10 0 0
BITMAP
00056000
01B6A800
0B22CA00
651C3900
92C50900
9B400900
00000A00
00000910
00000920
00000810
ENDCHAR
STARTCHAR colon
ENCODING 58
SWIDTH 120 0
DWIDTH 2 0
BBX 2 5 0 1
BITMAP
70
00
00
31
31
ENDCHAR
STARTCHAR semicolon
ENCODING 59
SWIDTH 121 0
DWIDTH 2 0
BBX 2 7 0 -2
BITMAP
10
42
00
43
86
73
40
ENDCHAR
STARTCHAR less
ENCODING 60
SWIDTH 409 0
DWIDTH 6 0
BBX 6 8 0 1
BITMAP
000037
0005C1
008A10
1A6000
3C2000
03C810
0006D3
000010
ENDCHAR
STARTCHAR equal
ENCODING 61
SWIDTH 433 0
DWIDTH 6 0
BBX 6 4 0 1
BITMAP
279A82
153001
0269B6
683000
ENDCHAR
STARTCHAR greater
ENCODING 62
SWIDTH 450 0
DWIDTH 6 0
BBX 6 9 0 1
BITMAP
010000
3D6000
018C40
0002A5
000093
001A60
02C500
2C3000
210000
ENDCHAR
STARTCHAR question
ENCODING 63
SWIDTH 445 0
DWIDTH 6 0
BBX 6 13 0 0
BITMAP
038AA5
9B300B
00001A
0000A3
000A60
00A700
03A000
01D940
000100
000000
000000
000000
006300
ENDCHAR
STARTCHAR at
ENCODING 64
SWIDTH 945 0
DWIDTH 13 0
BBX 13 13 0 0
BITMAP
00000058830000
00004B73286000
00059100009200
00570186002800
02A02A59000A00
0921A1B8000A00
29082668003600
751A3809649100
932C8000440000
94000000000170
68000000002A50
0B600000398100
017BBAA9610000
ENDCHAR
STARTCHAR A
ENCODING 65
SWIDTH 390 0
DWIDTH 5 0
BBX 7 11 0 0
BITMAP
04100000
0A700000
0CB00000
0C630000
0B190000
2A0B0110
3909B850
5B9B7000
6900A000
8300A000
61005300
ENDCHAR
STARTCHAR B
ENCODING 66
SWIDTH 537 0
DWIDTH 8 0
BBX 8 11 0 0
BITMAP
00002000
419AB600
8C308300
57047000
373B88A1
1DE60091
0D500360
0A003A00
0913C100
074B2000
04300000
ENDCHAR
STARTCHAR C
ENCODING 67
SWIDTH 487 0
DWIDTH 7 0
BBX 7 11 0 0
BITMAP
00021000
0089A000
03902000
09100000
0A000000
37000000
64000000
92000750
A1002B00
7402B200
1BB91000
ENDCHAR
STARTCHAR D
ENCODING 68
SWIDTH 554 0
DWIDTH 8 0
BBX 8 11 0 0
BITMAP
02000000
0AA97400
7D4126A1
09300046
08300054
074000A0
06400650
04504A00
0353C100
027C2000
00920000
ENDCHAR
STARTCHAR E
ENCODING 69
SWIDTH 474 0
DWIDTH 7 0
BBX 7 11 0 0
BITMAP
00001100
654A9200
5E920000
38000000
28005100
193A5000
0E810000
0D000420
0D019700
0D6A3000
0B600000
ENDCHAR
STARTCHAR F
ENCODING 70
SWIDTH 428 0
DWIDTH 6 0
BBX 6 10 0 0
BITMAP
210167
958A40
9B4000
940000
850014
860781
7BA300
690000
470000
260000
ENDCHAR
STARTCHAR G
ENCODING 71
SWIDTH 591 0
DWIDTH 8 0
BBX 8 12 0 -2
BITMAP
00000100
0005C700
00480000
01A00000
08300478
190047D5
640003F1
91001DD0
A415C4B0
2AC810C0
000000C1
00000040
ENDCHAR
STARTCHAR H
ENCODING 72
SWIDTH 424 0
DWIDTH 6 0
BBX 6 10 0 0
BITMAP
200020
9200B0
8300A0
8300B0
7401E1
755AB2
6E6063
560055
550046
460026
ENDCHAR
STARTCHAR I
ENCODING 73
SWIDTH 153 0
DWIDTH 2 0
BBX 2 11 0 0
BITMAP
13
28
29
1A
1A
0A
0B
0A
0A
0A
08
ENDCHAR
STARTCHAR J
ENCODING 74
SWIDTH 371 0
DWIDTH 5 0
BBX 5 11 0 -1
BITMAP
000800
000910
000830
000750
000570
000390
0001A0
0000B0
6000B0
540190
068920
ENDCHAR
STARTCHAR K
ENCODING 75
SWIDTH 524 0
DWIDTH 7 0
BBX 8 10 0 0
BITMAP
41000000
74005400
4603B000
370B2000
29750000
0CA00000
0E400000
0DB98882
0A211110
07100000
ENDCHAR
STARTCHAR L
ENCODING 76
SWIDTH 537 0
DWIDTH 8 0
BBX 8 9 0 0
BITMAP
64000000
86000000
76000000
77000000
68000000
68000011
690018B3
5929A300
4EA30000
ENDCHAR
STARTCHAR M
ENCODING 77
SWIDTH 682 0
DWIDTH 10 0
BBX 10 11 0 0
BITMAP
5500000700
7E40001F00
56B0006B10
3675009720
271B018640
2807564450
1A01CA0360
1C00770280
1D000000A0
0E000000C0
0D000000B1
ENDCHAR
STARTCHAR N
ENCODING 78
SWIDTH 541 0
DWIDTH 8 0
BBX 7 11 0 0
BITMAP
00000520
00000570
86000380
7F300290
59C10290
474A0190
290771A0
0A0095A0
0B001CB0
0B0002E0
09000040
ENDCHAR
STARTCHAR O
ENCODING 79
SWIDTH 382 0
DWIDTH 5 0
BBX 6 10 0 0
BITMAP
003400
04C990
0B10B0
3900A2
7500A2
9200B1
B000C0
B00480
841B10
1DC300
ENDCHAR
STARTCHAR P
ENCODING 80
SWIDTH 508 0
DWIDTH 7 0
BBX 7 12 0 0
BITMAP
00013100
1C998D50
7E1001B0
0B000580
0A005A00
0B3A7000
0E920000
0D000000
0C000000
0B000000
09000000
08000000
ENDCHAR
STARTCHAR Q
ENCODING 81
SWIDTH 512 0
DWIDTH 7 0
BBX 7 11 0 0
BITMAP
01757100
08C44900
0D100620
38000350
64000260
82013260
9101B350
82008A30
55002E00
1A006D40
04BB6180
ENDCHAR
STARTCHAR R
ENCODING 82
SWIDTH 503 0
DWIDTH 7 0
BBX 7 11 0 0
BITMAP
7739A810
7D831690
77001A20
75059100
78A50000
7C100000
7DB30000
733BA300
63003AA0
63000010
52000000
ENDCHAR
STARTCHAR S
ENCODING 83
SWIDTH 541 0
DWIDTH 8 0
BBX 8 11 0 0
BITMAP
00001100
0039B900
05800000
3A000000
A1000000
B0000000
3A631000
003579A1
000002C2
0016A910
02951000
ENDCHAR
STARTCHAR T
ENCODING 84
SWIDTH 595 0
DWIDTH 8 0
BBX 10 10 0 0
BITMAP
0013B88AA5
8BA7C62100
0000740000
0000650000
0000470000
0000390000
00001B0000
00000C0000
00000C0000
00000A0000
ENDCHAR
STARTCHAR U
ENCODING 85
SWIDTH 450 0
DWIDTH 6 0
BBX 6 11 0 -2
BITMAP
210007
84001D
84004C
74006B
74009B
7400CA
64039A
480A2A
09A40A
000009
000004
ENDCHAR
STARTCHAR V
ENCODING 86
SWIDTH 524 0
DWIDTH 7 0
BBX 7 11 0 0
BITMAP
00000010
000000B0
200001B0
A3000470
3A000840
0B300C10
04A01C00
00C24900
00597600
000CC300
0004D000
ENDCHAR
STARTCHAR W
ENCODING 87
SWIDTH 878 0
DWIDTH 12 0
BBX 12 12 0 -1
BITMAP
000000000003
00000000001A
520001900056
770003E30082
1C00087800B0
0B200A1C01A0
0760270A2460
03B073038830
00E1B000AC00
00A890003B00
004F40000100
000200000000
ENDCHAR
STARTCHAR X
ENCODING 88
SWIDTH 461 0
DWIDTH 6 0
BBX 6 10 0 0
BITMAP
010007
290028
0B20A1
049470
00BB10
008900
01BB20
093390
5900A2
310038
ENDCHAR
STARTCHAR Y
ENCODING 89
SWIDTH 483 0
DWIDTH 7 0
BBX 7 11 0 0
BITMAP
00000250
00000630
81000A00
4A001A00
08706500
00A7C100
000CA000
00094000
000B0000
00290000
00550000
ENDCHAR
STARTCHAR Z
ENCODING 90
SWIDTH 670 0
DWIDTH 9 0
BBX 9 10 0 0
BITMAP
4888888600
011123C700
000006A000
00003C1000
0001C20000
000B400000
0087000000
05A0000000
2C11111130
9FEDDCCBA0
ENDCHAR
STARTCHAR bracketleft
ENCODING 91
SWIDTH 470 0
DWIDTH 7 0
BBX 7 18 0 -2
BITMAP
46788300
A5210000
83000000
73000000
64000000
45000000
36000000
28000000
0A000000
0A000000
0A000000
0A000000
09000000
09000000
09000000
09100210
09AA9710
03400000
ENDCHAR
STARTCHAR backslash
ENCODING 92
SWIDTH 554 0
DWIDTH 8 0
BBX 8 15 0 0
BITMAP
10000000
A3000000
2A000000
07300000
01900000
00920000
00290000
000A2000
00039000
0000B200
00005900
00000C10
00000680
000000D1
00000077
ENDCHAR
STARTCHAR bracketright
ENCODING 93
SWIDTH 512 0
DWIDTH 7 0
BBX 7 19 0 -2
BITMAP
13456720
99754D30
00000B20
00000B20
00000B10
00000A20
00000A20
00000920
00000830
00000740
00000650
00000650
00000560
00000470
00000480
000003A0
000003B0
00048DA0
00054100
ENDCHAR
STARTCHAR asciicircum
ENCODING 94
SWIDTH 390 0
DWIDTH 5 0
BBX 6 4 0 9
BITMAP
01D200
083A10
2802A1
510031
ENDCHAR
STARTCHAR underscore
ENCODING 95
SWIDTH 612 0
DWIDTH 9 0
BBX 9 3 0 0
BITMAP
0000003610
0037BDB810
7C96300000
ENDCHAR
STARTCHAR grave
ENCODING 96
SWIDTH 155 0
DWIDTH 2 0
BBX 2 3 0 8
BITMAP
20
94
16
ENDCHAR
STARTCHAR a
ENCODING 97
SWIDTH 366 0
DWIDTH 5 0
BBX 5 8 0 0
BITMAP
003810
02DB50
0A4950
3B0D60
846A80
B1C190
BB40A0
860070
ENDCHAR
STARTCHAR b
ENCODING 98
SWIDTH 442 0
DWIDTH 6 0
BBX 6 12 0 0
BITMAP
360000
580000
580000
570000
560120
656DD5
6B901A
7B001A
740087
7305C1
74AB10
6C5000
ENDCHAR
STARTCHAR c
ENCODING 99
SWIDTH 390 0
DWIDTH 5 0
BBX 5 9 0 0
BITMAP
003000
0AB500
3A3700
660100
830000
910030
9100B0
550490
0BA910
ENDCHAR
STARTCHAR d
ENCODING 100
SWIDTH 316 0
DWIDTH 4 0
BBX 4 15 0 -2
BITMAP
0003
000C
000B
0009
0008
0039
0CAC
680A
A20B
A01D
906C
A1A8
8A28
0008
0001
ENDCHAR
STARTCHAR e
ENCODING 101
SWIDTH 461 0
DWIDTH 6 0
BBX 7 8 0 0
BITMAP
00351000
04C7B000
0C279000
4EB40000
DA000710
57004B00
2703B100
0AB80000
ENDCHAR
STARTCHAR f
ENCODING 102
SWIDTH 345 0
DWIDTH 5 0
BBX 5 13 0 0
BITMAP
006200
04CB00
076500
094000
0A3000
0B2010
0A7D60
4E6200
282000
083000
075000
066000
056000
ENDCHAR
STARTCHAR g
ENCODING 103
SWIDTH 437 0
DWIDTH 6 0
BBX 6 14 0 -6
BITMAP
001881
01B4F3
0926D4
280B86
835787
A1C178
9D5069
020059
000069
000067
000093
0000B0
000950
06C700
ENDCHAR
STARTCHAR h
ENCODING 104
SWIDTH 466 0
DWIDTH 7 0
BBX 7 12 0 -1
BITMAP
20000000
83000000
83000000
83000000
8407CA00
846D2B10
85D30A20
89A00A20
8E200A20
8A000930
63000930
00000100
ENDCHAR
STARTCHAR i
ENCODING 105
SWIDTH 132 0
DWIDTH 2 0
BBX 2 11 0 0
BITMAP
30
40
00
63
84
84
84
84
74
74
64
ENDCHAR
STARTCHAR j
ENCODING 106
SWIDTH 112 0
DWIDTH 2 0
BBX 5 17 -3 -5
BITMAP
000100
000410
000000
000000
000100
000920
000910
000920
000830
000740
000650
000560
000470
000470
200650
2A1B10
029600
ENDCHAR
STARTCHAR k
ENCODING 107
SWIDTH 428 0
DWIDTH 6 0
BBX 6 12 0 -1
BITMAP
240000
480000
580002
570078
6603E1
660C60
758A00
8BB100
8E1000
98A941
920396
300000
ENDCHAR
STARTCHAR l
ENCODING 108
SWIDTH 137 0
DWIDTH 2 0
BBX 2 12 0 0
BITMAP
80
81
72
53
54
45
36
36
37
37
48
35
ENDCHAR
STARTCHAR m
ENCODING 109
SWIDTH 579 0
DWIDTH 8 0
BBX 8 9 0 0
BITMAP
31000000
84000000
64860AC0
56ED2BD1
598A75A2
4D47E193
3F14B083
3D013077
29000014
ENDCHAR
STARTCHAR n
ENCODING 110
SWIDTH 483 0
DWIDTH 7 0
BBX 7 9 0 0
BITMAP
00001000
8108E600
844B0A00
75A40B00
67C00A20
5B800930
4F400830
2F100740
1C000420
ENDCHAR
STARTCHAR o
ENCODING 111
SWIDTH 266 0
DWIDTH 4 0
BBX 4 8 0 0
BITMAP
0940
4A91
7246
A137
B047
B174
A2B0
6D40
ENDCHAR
STARTCHAR p
ENCODING 112
SWIDTH 482 0
DWIDTH 7 0
BBX 7 12 0 -4
BITMAP
20000000
92399A30
99810660
87002B10
8203B200
748C2000
7E800000
75000000
73000000
73000000
82000000
71000000
ENDCHAR
STARTCHAR q
ENCODING 113
SWIDTH 408 0
DWIDTH 6 0
BBX 6 11 0 -4
BITMAP
001620
02B590
0A13C0
5706D0
920BA1
A38683
274065
000047
000029
00000B
00000A
ENDCHAR
STARTCHAR r
ENCODING 114
SWIDTH 396 0
DWIDTH 6 0
BBX 6 8 0 0
BITMAP
000010
816DA1
73D100
58A000
2B8000
0E6000
0D5000
093000
ENDCHAR
STARTCHAR s
ENCODING 115
SWIDTH 366 0
DWIDTH 5 0
BBX 5 8 0 -1
BITMAP
039B10
2A0000
830000
968C90
2731B0
001B50
03C500
022000
ENDCHAR
STARTCHAR t
ENCODING 116
SWIDTH 268 0
DWIDTH 4 0
BBX 5 12 -1 -1
BITMAP
016000
029000
028000
02B890
3CD610
388000
039000
02A000
01A000
00B000
00B000
002000
ENDCHAR
STARTCHAR u
ENCODING 117
SWIDTH 387 0
DWIDTH 5 0
BBX 5 8 0 -1
BITMAP
620250
830480
740480
740680
650B80
374CA0
0CC2C0
010020
ENDCHAR
STARTCHAR v
ENCODING 118
SWIDTH 354 0
DWIDTH 5 0
BBX 5 8 0 0
BITMAP
000240
000590
A20590
4A0580
0B3670
03C760
008F50
000C50
ENDCHAR
STARTCHAR w
ENCODING 119
SWIDTH 566 0
DWIDTH 8 0
BBX 8 8 0 0
BITMAP
00010000
820E3073
481CA074
0C3A6674
07990B85
02E803E5
00B70096
00560001
ENDCHAR
STARTCHAR x
ENCODING 120
SWIDTH 454 0
DWIDTH 6 0
BBX 6 10 0 -1
BITMAP
000500
000C10
510C00
6A0B00
07A900
009C10
00B8B1
00C04B
03A003
056000
ENDCHAR
STARTCHAR y
ENCODING 121
SWIDTH 363 0
DWIDTH 5 0
BBX 5 14 0 -6
BITMAP
000020
300090
8700A0
1C10B0
0490B0
00A7B0
001EA0
000690
000380
000470
000560
000650
000730
000210
ENDCHAR
STARTCHAR z
ENCODING 122
SWIDTH 618 0
DWIDTH 9 0
BBX 9 8 0 -1
BITMAP
0027C70000
5B94B50000
0002C00000
000A300000
002A000000
0075258BB0
00BDB85200
0010000000
ENDCHAR
STARTCHAR braceleft
ENCODING 123
SWIDTH 348 0
DWIDTH 5 0
BBX 5 14 0 -2
BITMAP
02A960
0B2010
0B0000
082000
03A000
8B2000
092000
5C5000
C30000
A00000
A00000
690000
08D600
001100
ENDCHAR
STARTCHAR bar
ENCODING 124
SWIDTH 137 0
DWIDTH 2 0
BBX 2 12 0 0
BITMAP
80
81
72
53
54
45
36
36
37
37
48
35
ENDCHAR
STARTCHAR braceright
ENCODING 125
SWIDTH 348 0
DWIDTH 5 0
BBX 5 14 0 -2
BITMAP
584000
41B300
004700
006400
00A000
019A10
003800
00C500
003D30
000550
000640
000B10
04C700
074000
ENDCHAR
STARTCHAR asciitilde
ENCODING 126
SWIDTH 458 0
DWIDTH 6 0
BBX 6 3 0 7
BITMAP
2BC428
542CC4
000220
ENDCHAR
STARTCHAR nonbreakingspace
ENCODING 160
SWIDTH 450 0
DWIDTH 6 0
BBX 1 1 0 0
BITMAP
00
ENDCHAR
STARTCHAR exclamdown
ENCODING 161
SWIDTH 137 0
DWIDTH 2 0
BBX 2 10 0 -3
BITMAP
04
00
00
30
A2
90
90
80
70
10
ENDCHAR
STARTCHAR cent
ENCODING 162
SWIDTH 394 0
DWIDTH 6 0
BBX 5 11 0 -1
BITMAP
008000
00A000
0ADB00
2A8530
667000
837000
916130
9161B0
556690
0BCA10
006300
ENDCHAR
STARTCHAR sterling
ENCODING 163
SWIDTH 539 0
DWIDTH 8 0
BBX 8 11 0 -1
BITMAP
00001410
0006A790
00480010
00A00000
7AEA5000
26600000
07400000
08300000
08359930
07B73391
01100000
ENDCHAR
STARTCHAR currency
ENCODING 164
SWIDTH 500 0
DWIDTH 7 0
BBX 6 9 0 1
BITMAP
000001
02102C
05CDC6
01C1C0
037091
0280A1
05C5D0
1C6BC1
550031
ENDCHAR
STARTCHAR yen
ENCODING 165
SWIDTH 478 0
DWIDTH 7 0
BBX 6 12 0 0
BITMAP
000003
09305C
05B0C4
00D7A0
007F30
001D00
001C56
0BCE94
146D84
154C10
000C00
000900
ENDCHAR
STARTCHAR brokenbar
ENCODING 166
SWIDTH 137 0
DWIDTH 2 0
BBX 2 12 0 0
BITMAP
80
82
73
54
33
12
36
27
27
37
48
35
ENDCHAR
STARTCHAR section
ENCODING 167
SWIDTH 366 0
DWIDTH 5 0
BBX 5 12 0 -1
BITMAP
002500
097600
660000
B00310
9BBBB0
2B0490
832B10
99ED90
2731B0
001B50
03C500
022000
ENDCHAR
STARTCHAR dieresis
ENCODING 168
SWIDTH 306 0
DWIDTH 4 0
BBX 3 2 1 9
BITMAP
5140
5240
ENDCHAR
STARTCHAR copyright
ENCODING 169
SWIDTH 485 0
DWIDTH 7 0
BBX 7 10 0 0
BITMAP
00055000
01B87A00
08640940
1A996580
65B01490
93A00970
B0A09F20
B05A9A00
8404B100
1DE91000
ENDCHAR
STARTCHAR ordfeminine
ENCODING 170
SWIDTH 227 0
DWIDTH 3 0
BBX 3 4 0 2
BITMAP
0540
4580
7770
9350
ENDCHAR
STARTCHAR guillemotleft
ENCODING 171
SWIDTH 652 0
DWIDTH 9 0
BBX 9 8 0 1
BITMAP
0000371A20
0005C3C500
008A4C4000
1A65A10000
3C26A10000
03C85C7100
0006D38C00
0000100000
ENDCHAR
STARTCHAR logicalnot
ENCODING 172
SWIDTH 539 0
DWIDTH 8 0
BBX 6 5 1 1
BITMAP
456787
44433A
00000A
00000A
000001
ENDCHAR
STARTCHAR uni00AD
ENCODING 173
SWIDTH 399 0
DWIDTH 6 0
BBX 6 3 0 2
BITMAP
000262
26BA61
540000
ENDCHAR
STARTCHAR registered
ENCODING 174
SWIDTH 382 0
DWIDTH 5 0
BBX 7 10 0 0
BITMAP
00031000
01BCD500
08101B10
19B79860
65A39480
92E90490
B0988960
B0704E10
8501A400
1DDB3000
ENDCHAR
STARTCHAR macron
ENCODING 175
SWIDTH 399 0
DWIDTH 6 0
BBX 6 2 0 9
BITMAP
012461
698751
ENDCHAR
STARTCHAR degree
ENCODING 176
SWIDTH 201 0
DWIDTH 3 0
BBX 3 3 0 5
BITMAP
2820
8270
3720
ENDCHAR
STARTCHAR plusminus
ENCODING 177
SWIDTH 466 0
DWIDTH 7 0
BBX 6 7 0 1
BITMAP
006000
008000
008011
13BA81
66B300
007310
29ABA2
ENDCHAR
STARTCHAR twosuperior
ENCODING 178
SWIDTH 318 0
DWIDTH 4 0
BBX 4 5 0 2
BITMAP
0520
5260
0150
0512
0953
ENDCHAR
STARTCHAR threesuperior
ENCODING 179
SWIDTH 280 0
DWIDTH 4 0
BBX 4 6 0 2
BITMAP
0440
5260
0951
2406
0044
0450
ENDCHAR
STARTCHAR acute
ENCODING 180
SWIDTH 155 0
DWIDTH 2 0
BBX 2 2 0 8
BITMAP
3B
72
ENDCHAR
STARTCHAR mu
ENCODING 181
SWIDTH 387 0
DWIDTH 5 0
BBX 5 10 0 -2
BITMAP
410130
830490
830490
940590
9509A0
962EA0
9CC5A0
942000
900000
600000
ENDCHAR
STARTCHAR paragraph
ENCODING 182
SWIDTH 447 0
DWIDTH 6 0
BBX 6 9 0 0
BITMAP
07CDE5
7FFF76
AFFD57
263867
000778
000678
000579
000479
000356
ENDCHAR
STARTCHAR periodcentered
ENCODING 183
SWIDTH 128 0
DWIDTH 2 0
BBX 2 1 0 3
BITMAP
83
ENDCHAR
STARTCHAR cedilla
ENCODING 184
SWIDTH 322 0
DWIDTH 5 0
BBX 4 6 0 -5
BITMAP
0400
2900
0DA2
005D
08CB
0310
ENDCHAR
STARTCHAR onesuperior
ENCODING 185
SWIDTH 112 0
DWIDTH 2 0
BBX 2 5 0 2
BITMAP
60
80
80
81
71
ENDCHAR
STARTCHAR ordmasculine
ENCODING 186
SWIDTH 212 0
DWIDTH 3 0
BBX 3 4 0 2
BITMAP
4830
8080
9090
8730
ENDCHAR
STARTCHAR guillemotright
ENCODING 187
SWIDTH 625 0
DWIDTH 9 0
BBX 8 9 0 1
BITMAP
01030000
3D67C400
018C59B2
0002A52C
00009339
001A66B1
02C69A00
2C397000
21010000
ENDCHAR
STARTCHAR onequarter
ENCODING 188
SWIDTH 678 0
DWIDTH 10 0
BBX 9 12 0 -2
BITMAP
0005200000
000A000000
4019002100
805501D300
80910AA300
9090747300
856685A950
6936317300
0A00007300
3700006300
7200000000
1000000000
ENDCHAR
STARTCHAR onehalf
ENCODING 189
SWIDTH 693 0
DWIDTH 10 0
BBX 9 12 0 -2
BITMAP
0000800000
0001900000
2205500000
3309100000
44096A2000
444B426000
3481044000
25A0081000
0370182620
0720785100
0900000000
0100000000
ENDCHAR
STARTCHAR threequarters
ENCODING 190
SWIDTH 868 0
DWIDTH 12 0
BBX 10 12 0 -2
BITMAP
0001000800
187A001A30
2126005C70
02C630AC70
075072F370
000087D194
00075F9792
00840A0170
0000270170
0000730160
0000900000
0000100000
ENDCHAR
STARTCHAR questiondown
ENCODING 191
SWIDTH 541 0
DWIDTH 8 0
BBX 7 12 1 -1
BITMAP
00080000
00000000
00000000
00000000
01771000
01288000
001B4000
01C50000
1B300000
83000000
B1028C10
39974000
ENDCHAR
STARTCHAR Agrave
ENCODING 192
SWIDTH 390 0
DWIDTH 5 0
BBX 7 13 0 0
BITMAP
01100000
03A00000
03810000
07A00000
09C10000
0B460000
0C0A0000
0C092120
0C06C970
2D8AA000
3B10B000
56007300
43002600
ENDCHAR
STARTCHAR Aacute
ENCODING 193
SWIDTH 390 0
DWIDTH 5 0
BBX 7 13 0 0
BITMAP
07700000
08000000
04100000
0A700000
0CB00000
0C630000
0B190000
2A0B0110
3909B850
5B9B7000
6900A000
8300A000
61005300
ENDCHAR
STARTCHAR Acircumflex
ENCODING 194
SWIDTH 390 0
DWIDTH 5 0
BBX 8 14 -1 0
BITMAP
00C50000
06593000
0A00A200
33411200
00A70000
00CB0000
00C63000
00B19000
02A0B011
03909B85
05B9B700
06900A00
08300A00
06100530
ENDCHAR
STARTCHAR Atilde
ENCODING 195
SWIDTH 390 0
DWIDTH 5 0
BBX 8 14 -1 0
BITMAP
09B80A00
180BB800
00013000
00410000
00A70000
00CB0000
00C63000
00B19000
02A0B011
03909B85
05B9B700
06900A00
08300A00
06100530
ENDCHAR
STARTCHAR Adieresis
ENCODING 196
SWIDTH 390 0
DWIDTH 5 0
BBX 7 13 0 0
BITMAP
14230000
14330000
04100000
0A700000
0CB00000
0C630000
0B190000
2A0B0110
3909B850
5B9B7000
6900A000
8300A000
61005300
ENDCHAR
STARTCHAR Aring
ENCODING 197
SWIDTH 390 0
DWIDTH 5 0
BBX 7 13 0 0
BITMAP
15400000
C5B30000
A8A20000
0B700000
0CB00000
0B630000
0B190000
2A0B0110
3909B850
5B9B7000
6900A000
8300A000
61005300
ENDCHAR
STARTCHAR AE
ENCODING 198
SWIDTH 708 0
DWIDTH 10 0
BBX 10 11 0 0
BITMAP
0410000020
0A72A29A30
0CB0EB4000
0C63B00000
0B19A00330
2A0BB38500
3909F91000
5B9BF30025
6900E30691
8300B7A500
6100681000
ENDCHAR
STARTCHAR Ccedilla
ENCODING 199
SWIDTH 487 0
DWIDTH 7 0
BBX 7 16 0 -5
BITMAP
00021000
0089A000
03902000
09100000
0A000000
37000000
64000000
92000750
A1002B00
7402B200
1BB91000
00A00000
00C81000
0027D100
0037E300
00562000
ENDCHAR
STARTCHAR Egrave
ENCODING 200
SWIDTH 474 0
DWIDTH 7 0
BBX 7 13 0 0
BITMAP
00100000
01B00000
00521100
654A9200
5E920000
38000000
28005100
193A5000
0E810000
0D000420
0D019700
0D6A3000
0B600000
ENDCHAR
STARTCHAR Eacute
ENCODING 201
SWIDTH 474 0
DWIDTH 7 0
BBX 7 12 0 0
BITMAP
001C1000
00541100
654A9200
5E920000
38000000
28005100
193A5000
0E810000
0D000420
0D019700
0D6A3000
0B600000
ENDCHAR
STARTCHAR Ecircumflex
ENCODING 202
SWIDTH 474 0
DWIDTH 7 0
BBX 7 15 0 0
BITMAP
005B0000
00A39000
07305800
06000400
00001100
654A9200
5E920000
38000000
28005100
193A5000
0E810000
0D000420
0D019700
0D6A3000
0B600000
ENDCHAR
STARTCHAR Edieresis
ENCODING 203
SWIDTH 474 0
DWIDTH 7 0
BBX 7 13 0 0
BITMAP
01423000
02432000
00001100
654A9200
5E920000
38000000
28005100
193A5000
0E810000
0D000420
0D019700
0D6A3000
0B600000
ENDCHAR
STARTCHAR Igrave
ENCODING 204
SWIDTH 153 0
DWIDTH 2 0
BBX 2 14 0 0
BITMAP
20
94
16
13
28
29
1A
1A
0A
0B
0A
0A
0A
08
ENDCHAR
STARTCHAR Iacute
ENCODING 205
SWIDTH 153 0
DWIDTH 2 0
BBX 3 13 0 0
BITMAP
1C10
5400
1300
2800
2900
1A00
1A00
0A00
0B00
0A00
0A00
0A00
0800
ENDCHAR
STARTCHAR Icircumflex
ENCODING 206
SWIDTH 153 0
DWIDTH 2 0
BBX 5 14 -1 0
BITMAP
07A000
194800
820760
613040
028000
029000
01A000
01A000
00A000
00B000
00A000
00A000
00A000
008000
ENDCHAR
STARTCHAR Idieresis
ENCODING 207
SWIDTH 153 0
DWIDTH 2 0
BBX 4 13 -1 0
BITMAP
1524
1523
0130
0280
0290
01A0
01A0
00A0
00B0
00A0
00A0
00A0
0080
ENDCHAR
STARTCHAR Eth
ENCODING 208
SWIDTH 554 0
DWIDTH 8 0
BBX 8 11 0 0
BITMAP
02000000
0AA97400
7D4126A1
09300046
08300054
073000A0
06400650
39CA4A00
3884C100
027C2000
00920000
ENDCHAR
STARTCHAR Ntilde
ENCODING 209
SWIDTH 541 0
DWIDTH 8 0
BBX 7 13 0 0
BITMAP
1BB42800
441CC500
00012520
00000570
86000380
7F300290
59C10290
474A0190
290771A0
0A0095A0
0B001CB0
0B0002E0
09000040
ENDCHAR
STARTCHAR Ograve
ENCODING 210
SWIDTH 382 0
DWIDTH 5 0
BBX 6 13 0 0
BITMAP
000200
000C10
000340
003400
04C990
0B10B0
3900A2
7500A2
9200B1
B000C0
B00480
841B10
1DC300
ENDCHAR
STARTCHAR Oacute
ENCODING 211
SWIDTH 382 0
DWIDTH 5 0
BBX 6 12 0 0
BITMAP
00A400
027000
003400
04C990
0B10B0
3900A2
7500A2
9200B1
B000C0
B00480
841B10
1DC300
ENDCHAR
STARTCHAR Ocircumflex
ENCODING 212
SWIDTH 382 0
DWIDTH 5 0
BBX 6 13 0 0
BITMAP
02D200
092A10
3703A1
603430
04C990
0B10B0
3900A2
7500A2
9200B1
B000C0
B00480
841B10
1DC300
ENDCHAR
STARTCHAR Otilde
ENCODING 213
SWIDTH 382 0
DWIDTH 5 0
BBX 6 12 0 0
BITMAP
1AB619
361CC6
003620
04C990
0B10B0
3900A2
7500A2
9200B1
B000C0
B00480
841B10
1DC300
ENDCHAR
STARTCHAR Odieresis
ENCODING 214
SWIDTH 382 0
DWIDTH 5 0
BBX 6 12 0 0
BITMAP
005150
005150
003400
04C990
0B10B0
3900A2
7500A2
9200B1
B000C0
B00480
841B10
1DC300
ENDCHAR
STARTCHAR multiply
ENCODING 215
SWIDTH 454 0
DWIDTH 6 0
BBX 4 6 1 1
BITMAP
5003
6558
0BA0
3AA0
9175
0001
ENDCHAR
STARTCHAR Oslash
ENCODING 216
SWIDTH 382 0
DWIDTH 5 0
BBX 6 11 0 -1
BITMAP
003660
04CC90
0B1AB0
3918A2
7564A2
9290B1
B190C0
B45480
8B2B10
2FC300
260000
ENDCHAR
STARTCHAR Ugrave
ENCODING 217
SWIDTH 450 0
DWIDTH 6 0
BBX 6 14 0 -2
BITMAP
002000
00A300
001500
210007
84001D
84004C
74006B
74009B
7400CA
64039A
480A2A
09A40A
000009
000004
ENDCHAR
STARTCHAR Uacute
ENCODING 218
SWIDTH 450 0
DWIDTH 6 0
BBX 6 12 0 -2
BITMAP
000B20
213507
84001D
84004C
74006B
74009B
7400CA
64039A
480A2A
09A40A
000009
000004
ENDCHAR
STARTCHAR Ucircumflex
ENCODING 219
SWIDTH 450 0
DWIDTH 6 0
BBX 6 15 0 -2
BITMAP
00A600
047750
0A00A4
240013
210007
84001D
84004C
74006B
74009B
7400CA
64039A
480A2A
09A40A
000009
000004
ENDCHAR
STARTCHAR Udieresis
ENCODING 220
SWIDTH 450 0
DWIDTH 6 0
BBX 6 13 0 -2
BITMAP
015240
014230
210007
84001D
84004C
74006B
74009B
7400CA
64039A
480A2A
09A40A
000009
000004
ENDCHAR
STARTCHAR Yacute
ENCODING 221
SWIDTH 483 0
DWIDTH 7 0
BBX 7 13 0 0
BITMAP
00059000
00081000
00000250
00000630
81000A00
4A001A00
08706500
00A7C100
000CA000
00094000
000B0000
00290000
00550000
ENDCHAR
STARTCHAR Thorn
ENCODING 222
SWIDTH 398 0
DWIDTH 6 0
BBX 6 12 0 0
BITMAP
120000
570000
650100
66BCC1
7E3084
870084
8401C1
841A30
9BA200
960000
840000
530000
ENDCHAR
STARTCHAR germandbls
ENCODING 223
SWIDTH 537 0
DWIDTH 8 0
BBX 8 11 0 0
BITMAP
00002000
419AB600
8C308300
57047000
373B88A1
1DE60091
0D500360
0A003A00
0913C100
074B2000
04300000
ENDCHAR
STARTCHAR agrave
ENCODING 224
SWIDTH 366 0
DWIDTH 5 0
BBX 5 11 0 0
BITMAP
010000
049000
007000
003810
02DB50
0A4950
3B0D60
846A80
B1C190
BB40A0
860070
ENDCHAR
STARTCHAR aacute
ENCODING 225
SWIDTH 366 0
DWIDTH 5 0
BBX 5 10 0 0
BITMAP
005800
008100
003810
02DB50
0A4950
3B0D60
846A80
B1C190
BB40A0
860070
ENDCHAR
STARTCHAR acircumflex
ENCODING 226
SWIDTH 366 0
DWIDTH 5 0
BBX 5 13 0 0
BITMAP
04C100
0A2A00
550490
600040
000000
003810
02DB50
0A4950
3B0D60
846A80
B1C190
BB40A0
860070
ENDCHAR
STARTCHAR atilde
ENCODING 227
SWIDTH 366 0
DWIDTH 5 0
BBX 6 11 0 0
BITMAP
3BC246
724BC2
000210
003810
02DB50
0A4950
3B0D60
846A80
B1C190
BB40A0
860070
ENDCHAR
STARTCHAR adieresis
ENCODING 228
SWIDTH 366 0
DWIDTH 5 0
BBX 5 11 0 0
BITMAP
041500
051500
000000
003810
02DB50
0A4950
3B0D60
846A80
B1C190
BB40A0
860070
ENDCHAR
STARTCHAR aring
ENCODING 229
SWIDTH 366 0
DWIDTH 5 0
BBX 5 10 0 0
BITMAP
016600
0B4860
07AC40
02DB50
0A4950
3B0D60
846A80
B1C190
BB40A0
860070
ENDCHAR
STARTCHAR ae
ENCODING 230
SWIDTH 705 0
DWIDTH 10 0
BBX 10 8 0 0
BITMAP
003814B910
02DB6C2960
0A49C89800
3B0DFB2000
846CF00067
B1C1D003C1
BB40D35A10
8600885000
ENDCHAR
STARTCHAR ccedilla
ENCODING 231
SWIDTH 390 0
DWIDTH 5 0
BBX 5 14 0 -5
BITMAP
003000
0AB500
3A3700
660100
830000
910030
9100B0
550490
0BA910
073000
05E600
001A70
038D70
013100
ENDCHAR
STARTCHAR egrave
ENCODING 232
SWIDTH 461 0
DWIDTH 6 0
BBX 7 11 0 0
BITMAP
00200000
00940000
00160000
00351000
04C7B000
0C279000
4EB40000
DA000710
57004B00
2703B100
0AB80000
ENDCHAR
STARTCHAR eacute
ENCODING 233
SWIDTH 461 0
DWIDTH 6 0
BBX 7 10 0 0
BITMAP
000A3000
00360000
00351000
04C7B000
0C279000
4EB40000
DA000710
57004B00
2703B100
0AB80000
ENDCHAR
STARTCHAR ecircumflex
ENCODING 234
SWIDTH 461 0
DWIDTH 6 0
BBX 7 13 0 0
BITMAP
00980000
03866000
09109500
15000300
00000000
00351000
04C7B000
0C279000
4EB40000
DA000710
57004B00
2703B100
0AB80000
ENDCHAR
STARTCHAR edieresis
ENCODING 235
SWIDTH 461 0
DWIDTH 6 0
BBX 7 11 0 0
BITMAP
00514000
01524000
00000000
00351000
04C7B000
0C279000
4EB40000
DA000710
57004B00
2703B100
0AB80000
ENDCHAR
STARTCHAR igrave
ENCODING 236
SWIDTH 132 0
DWIDTH 2 0
BBX 2 12 0 0
BITMAP
20
C1
33
00
63
84
84
84
84
74
74
64
ENDCHAR
STARTCHAR iacute
ENCODING 237
SWIDTH 132 0
DWIDTH 2 0
BBX 2 12 0 0
BITMAP
08
77
00
00
63
84
84
84
84
74
74
64
ENDCHAR
STARTCHAR icircumflex
ENCODING 238
SWIDTH 132 0
DWIDTH 2 0
BBX 6 13 -2 0
BITMAP
01D400
074920
1901B2
420022
000000
006300
008400
008400
008400
008400
007400
007400
006400
ENDCHAR
STARTCHAR idieresis
ENCODING 239
SWIDTH 132 0
DWIDTH 2 0
BBX 4 11 -1 0
BITMAP
2332
3342
0000
0630
0840
0840
0840
0840
0740
0740
0640
ENDCHAR
STARTCHAR eth
ENCODING 240
SWIDTH 481 0
DWIDTH 7 0
BBX 6 10 1 -1
BITMAP
043000
02B000
01A654
2A9D41
140A10
CCC740
A05E30
A02D00
4BB300
010000
ENDCHAR
STARTCHAR ntilde
ENCODING 241
SWIDTH 483 0
DWIDTH 7 0
BBX 7 12 0 0
BITMAP
08AA0820
0909AA00
00003000
00001000
8108E600
844B0A00
75A40B00
67C00A20
5B800930
4F400830
2F100740
1C000420
ENDCHAR
STARTCHAR ograve
ENCODING 242
SWIDTH 266 0
DWIDTH 4 0
BBX 4 11 0 0
BITMAP
0200
1C10
0430
0940
4A91
7246
A137
B047
B174
A2B0
6D40
ENDCHAR
STARTCHAR oacute
ENCODING 243
SWIDTH 266 0
DWIDTH 4 0
BBX 4 10 0 0
BITMAP
02B0
0620
0940
4A91
7246
A137
B047
B174
A2B0
6D40
ENDCHAR
STARTCHAR ocircumflex
ENCODING 244
SWIDTH 266 0
DWIDTH 4 0
BBX 6 13 -1 0
BITMAP
01D300
083A20
1901B2
520021
000000
009400
04A910
072460
0A1370
0B0470
0B1740
0A2B00
06D400
ENDCHAR
STARTCHAR otilde
ENCODING 245
SWIDTH 266 0
DWIDTH 4 0
BBX 6 11 -1 0
BITMAP
1BB529
451CC5
000120
009400
04A910
072460
0A1370
0B0470
0B1740
0A2B00
06D400
ENDCHAR
STARTCHAR odieresis
ENCODING 246
SWIDTH 266 0
DWIDTH 4 0
BBX 4 11 0 0
BITMAP
2342
3341
0000
0940
4A91
7246
A137
B047
B174
A2B0
6D40
ENDCHAR
STARTCHAR divide
ENCODING 247
SWIDTH 345 0
DWIDTH 5 0
BBX 5 5 0 1
BITMAP
016000
246830
354310
004000
003000
ENDCHAR
STARTCHAR oslash
ENCODING 248
SWIDTH 266 0
DWIDTH 4 0
BBX 4 11 0 -2
BITMAP
0001
0968
4AB3
72C6
A3A7
B867
B974
A6B0
AD40
9000
1000
ENDCHAR
STARTCHAR ugrave
ENCODING 249
SWIDTH 387 0
DWIDTH 5 0
BBX 5 12 0 -1
BITMAP
011000
02B000
006100
000000
620250
830480
740480
740680
650B80
374CA0
0CC2C0
010020
ENDCHAR
STARTCHAR uacute
ENCODING 250
SWIDTH 387 0
DWIDTH 5 0
BBX 5 11 0 -1
BITMAP
004A00
007100
000000
620250
830480
740480
740680
650B80
374CA0
0CC2C0
010020
ENDCHAR
STARTCHAR ucircumflex
ENCODING 251
SWIDTH 387 0
DWIDTH 5 0
BBX 6 14 0 -1
BITMAP
02D200
092A10
3702A1
610030
000000
000000
620250
830480
740480
740680
650B80
374CA0
0CC2C0
010020
ENDCHAR
STARTCHAR udieresis
ENCODING 252
SWIDTH 387 0
DWIDTH 5 0
BBX 5 12 0 -1
BITMAP
032510
041500
000000
000000
620250
830480
740480
740680
650B80
374CA0
0CC2C0
010020
ENDCHAR
STARTCHAR yacute
ENCODING 253
SWIDTH 363 0
DWIDTH 5 0
BBX 5 16 0 -6
BITMAP
006800
008100
000020
300090
8700A0
1C10B0
0490B0
00A7B0
001EA0
000690
000380
000470
000560
000650
000730
000210
ENDCHAR
STARTCHAR thorn
ENCODING 254
SWIDTH 439 0
DWIDTH 6 0
BBX 6 10 0 -1
BITMAP
831662
87942B
890038
7302A1
645B10
5DA100
580000
640000
730000
210000
ENDCHAR
STARTCHAR ydieresis
ENCODING 255
SWIDTH 363 0
DWIDTH 5 0
BBX 5 17 0 -6
BITMAP
051500
051500
000000
000020
300090
8700A0
1C10B0
0490B0
00A7B0
001EA0
000690
000380
000470
000560
000650
000730
000210
ENDCHAR
STARTCHAR Amacron
ENCODING 256
SWIDTH 390 0
DWIDTH 5 0
BBX 7 13 0 0
BITMAP
01356000
88765000
04100000
0A700000
0CB00000
0C630000
0B190000
2A0B0110
3909B850
5B9B7000
6900A000
8300A000
61005300
ENDCHAR
STARTCHAR amacron
ENCODING 257
SWIDTH 366 0
DWIDTH 5 0
BBX 5 11 0 0
BITMAP
013560
897650
000000
003810
02DB50
0A4950
3B0D60
846A80
B1C190
BB40A0
860070
ENDCHAR
STARTCHAR Abreve
ENCODING 258
SWIDTH 390 0
DWIDTH 5 0
BBX 7 14 0 0
BITMAP
01021000
2A5C1000
03920000
04100000
0A700000
0CB00000
0C630000
0B190000
2A0B0110
3909B850
5B9B7000
6900A000
8300A000
61005300
ENDCHAR
STARTCHAR abreve
ENCODING 259
SWIDTH 366 0
DWIDTH 5 0
BBX 5 11 0 0
BITMAP
010120
0A5B40
018400
003810
02DB50
0A4950
3B0D60
846A80
B1C190
BB40A0
860070
ENDCHAR
STARTCHAR Aogonek
ENCODING 260
SWIDTH 390 0
DWIDTH 5 0
BBX 7 15 0 -4
BITMAP
04100000
0A700000
0CB00000
0C630000
0B190000
2A0B0110
3909B850
5B9B7000
6900A000
8300A000
61006300
0002B100
00084000
00069870
00005510
ENDCHAR
STARTCHAR aogonek
ENCODING 261
SWIDTH 366 0
DWIDTH 5 0
BBX 7 11 0 -3
BITMAP
00381000
02DB5000
0A495000
3B0D6000
846A8000
B1C19000
BB40A000
8603A000
000C1000
000B0310
0007CA10
ENDCHAR
STARTCHAR Cacute
ENCODING 262
SWIDTH 487 0
DWIDTH 7 0
BBX 7 12 0 0
BITMAP
000B3000
00381000
0089A000
03902000
09100000
0A000000
37000000
64000000
92000750
A1002B00
7402B200
1BB91000
ENDCHAR
STARTCHAR cacute
ENCODING 263
SWIDTH 390 0
DWIDTH 5 0
BBX 5 11 0 0
BITMAP
008600
018000
003000
0AB500
3A3700
660100
830000
910030
9100B0
550490
0BA910
ENDCHAR
STARTCHAR Ccircumflex
ENCODING 264
SWIDTH 487 0
DWIDTH 7 0
BBX 7 14 0 0
BITMAP
00790000
01947000
08207600
06021300
0089A000
03902000
09100000
0A000000
37000000
64000000
92000750
A1002B00
7402B200
1BB91000
ENDCHAR
STARTCHAR ccircumflex
ENCODING 265
SWIDTH 390 0
DWIDTH 5 0
BBX 6 13 0 0
BITMAP
02D200
092A10
3702A1
610030
003000
0AB500
3A3700
660100
830000
910030
9100B0
550490
0BA910
ENDCHAR
STARTCHAR Cdotaccent
ENCODING 266
SWIDTH 487 0
DWIDTH 7 0
BBX 7 13 0 0
BITMAP
00160000
00130000
00021000
0089A000
03902000
09100000
0A000000
37000000
64000000
92000750
A1002B00
7402B200
1BB91000
ENDCHAR
STARTCHAR cdotaccent
ENCODING 267
SWIDTH 390 0
DWIDTH 5 0
BBX 5 10 0 0
BITMAP
025000
003000
0BB400
3A3700
750100
820000
A10030
9000B0
640480
0BA800
ENDCHAR
STARTCHAR Ccaron
ENCODING 268
SWIDTH 487 0
DWIDTH 7 0
BBX 7 14 0 0
BITMAP
01000000
07305700
00975000
00151000
0089A000
03902000
09100000
0A000000
37000000
64000000
92000750
A1002B00
7402B200
1BB91000
ENDCHAR
STARTCHAR ccaron
ENCODING 269
SWIDTH 390 0
DWIDTH 5 0
BBX 5 12 0 0
BITMAP
100000
360290
067800
007000
0AB500
3A3700
660100
830000
910030
9100B0
550490
0BA910
ENDCHAR
STARTCHAR Dcaron
ENCODING 270
SWIDTH 554 0
DWIDTH 8 0
BBX 8 14 0 0
BITMAP
01100000
00900830
00298200
02031000
0AA97400
7D4126A1
09300046
08300054
074000A0
06400650
04504A00
0353C100
027C2000
00920000
ENDCHAR
STARTCHAR Emacron
ENCODING 274
SWIDTH 474 0
DWIDTH 7 0
BBX 7 13 0 0
BITMAP
00245300
49876200
00001100
654A9200
5E920000
38000000
28005100
193A5000
0E810000
0D000420
0D019700
0D6A3000
0B600000
ENDCHAR
STARTCHAR emacron
ENCODING 275
SWIDTH 461 0
DWIDTH 6 0
BBX 7 11 0 0
BITMAP
00135400
29876400
00000000
00351000
04C7B000
0C279000
4EB40000
DA000710
57004B00
2703B100
0AB80000
ENDCHAR
STARTCHAR Ebreve
ENCODING 276
SWIDTH 474 0
DWIDTH 7 0
BBX 7 14 0 0
BITMAP
00002000
02A5C000
00482000
00001100
654A9200
5E920000
38000000
28005100
193A5000
0E810000
0D000420
0D019700
0D6A3000
0B600000
ENDCHAR
STARTCHAR ebreve
ENCODING 277
SWIDTH 461 0
DWIDTH 6 0
BBX 7 11 0 0
BITMAP
00002000
02A5C000
00382000
00351000
04C7B000
0C279000
4EB40000
DA000710
57004B00
2703B100
0AB80000
ENDCHAR
STARTCHAR Edotaccent
ENCODING 278
SWIDTH 474 0
DWIDTH 7 0
BBX 7 12 0 0
BITMAP
00520000
00311100
654A9200
5E920000
38000000
28005100
193A5000
0E810000
0D000420
0D019700
0D6A3000
0B600000
ENDCHAR
STARTCHAR edotaccent
ENCODING 279
SWIDTH 461 0
DWIDTH 6 0
BBX 7 9 0 0
BITMAP
00160000
00381000
04C7B000
0C279000
4EB40000
DA000710
57004B00
2703B100
0AB80000
ENDCHAR
STARTCHAR Eogonek
ENCODING 280
SWIDTH 474 0
DWIDTH 7 0
BBX 7 13 0 -2
BITMAP
00001100
654A9200
5E920000
38000000
28005100
193A5000
0E810000
0D000420
0D019700
0D6D4000
0B7A0000
000C7C10
00024200
ENDCHAR
STARTCHAR eogonek
ENCODING 281
SWIDTH 461 0
DWIDTH 6 0
BBX 7 11 0 -3
BITMAP
00351000
04C7B000
0C279000
4EB40000
DA000710
57004B00
2703B100
09B90000
01B00000
02915000
009C8000
ENDCHAR
STARTCHAR Ecaron
ENCODING 282
SWIDTH 474 0
DWIDTH 7 0
BBX 7 14 0 0
BITMAP
11000000
09008300
02982000
00311100
654A9200
5E920000
38000000
28005100
193A5000
0E810000
0D000420
0D019700
0D6A3000
0B600000
ENDCHAR
STARTCHAR ecaron
ENCODING 283
SWIDTH 461 0
DWIDTH 6 0
BBX 7 12 0 0
BITMAP
01000000
08107400
01983000
00220000
00351000
04C7B000
0C279000
4EB40000
DA000710
57004B00
2703B100
0AB80000
ENDCHAR
STARTCHAR Gcircumflex
ENCODING 284
SWIDTH 591 0
DWIDTH 8 0
BBX 8 15 0 -2
BITMAP
000B6000
00477400
00A00A30
02400230
0005C700
00480000
01A00000
08300478
190047D5
640003F1
91001DD0
A415C4B0
2AC810C0
000000C1
00000040
ENDCHAR
STARTCHAR gcircumflex
ENCODING 285
SWIDTH 437 0
DWIDTH 6 0
BBX 6 19 0 -6
BITMAP
00B500
056840
0A00A3
330012
000000
001881
01B4F3
0926D4
280B86
835787
A1C178
9D5069
020059
000069
000067
000093
0000B0
000950
06C700
ENDCHAR
STARTCHAR Gbreve
ENCODING 286
SWIDTH 591 0
DWIDTH 8 0
BBX 8 14 0 -2
BITMAP
00010210
001A4C20
00029400
0005C700
00480000
01A00000
08300478
190047D5
640003F1
91001DD0
A415C4B0
2AC810C0
000000C1
00000040
ENDCHAR
STARTCHAR gbreve
ENCODING 287
SWIDTH 437 0
DWIDTH 6 0
BBX 6 18 0 -6
BITMAP
010030
0496B0
005810
000000
001881
01B4F3
0926D4
280B86
835787
A1C178
9D5069
020059
000069
000067
000093
0000B0
000950
06C700
ENDCHAR
STARTCHAR Gdotaccent
ENCODING 288
SWIDTH 591 0
DWIDTH 8 0
BBX 9 14 0 -2
BITMAP
0001600000
0001300000
0000010000
0003C91000
002A100000
00A1000000
0560037920
0A0027B900
280001D500
55000AD300
6813B68300
08CA309300
0000008500
0000003200
ENDCHAR
STARTCHAR gdotaccent
ENCODING 289
SWIDTH 437 0
DWIDTH 6 0
BBX 6 16 0 -6
BITMAP
000520
000310
001881
01B4F3
0926D4
280B86
835787
A1C178
9D5069
020059
000069
000067
000093
0000B0
000950
06C700
ENDCHAR
STARTCHAR Gcommaaccent
ENCODING 290
SWIDTH 591 0
DWIDTH 8 0
BBX 8 15 0 -5
BITMAP
00000100
0005C700
00480000
01A00000
08300478
190047D5
640003F1
91001DD0
A415C4B0
2AC810C0
000000C1
00034040
00058000
00056000
00031000
ENDCHAR
STARTCHAR Hcircumflex
ENCODING 292
SWIDTH 424 0
DWIDTH 6 0
BBX 6 14 0 0
BITMAP
02D200
092A10
3702A1
610031
200020
9200B0
8300A0
8300B0
7401E1
755AB2
6E6063
560055
550046
460026
ENDCHAR
STARTCHAR hcircumflex
ENCODING 293
SWIDTH 466 0
DWIDTH 7 0
BBX 7 14 0 -1
BITMAP
00089000
00295700
20910860
83600030
83000000
83000000
8407CA00
846D2B10
85D30A20
89A00A20
8E200A20
8A000930
63000930
00000100
ENDCHAR
STARTCHAR Hbar
ENCODING 294
SWIDTH 424 0
DWIDTH 6 0
BBX 6 10 0 0
BITMAP
200020
9200B0
8300A0
9AABE2
7401E1
755AB2
6E6063
660055
550046
460026
ENDCHAR
STARTCHAR hbar
ENCODING 295
SWIDTH 466 0
DWIDTH 7 0
BBX 8 12 -1 -1
BITMAP
02000000
08300000
08300000
29879100
5B739CA0
0846D2B1
085D30A2
089A00A2
08E200A2
08A00093
06300093
00000010
ENDCHAR
STARTCHAR Itilde
ENCODING 296
SWIDTH 153 0
DWIDTH 2 0
BBX 6 14 -2 0
BITMAP
2BC428
542CC4
000220
001300
002800
002900
001A00
001A00
000A00
000B00
000A00
000A00
000A00
000800
ENDCHAR
STARTCHAR itilde
ENCODING 297
SWIDTH 132 0
DWIDTH 2 0
BBX 6 11 -2 0
BITMAP
4BC246
714CC2
000210
006300
008400
008400
008400
008400
007400
007400
006400
ENDCHAR
STARTCHAR imacron
ENCODING 299
SWIDTH 132 0
DWIDTH 2 0
BBX 6 11 -2 0
BITMAP
002452
498762
000000
006300
008400
008400
008400
008400
007400
007400
006400
ENDCHAR
STARTCHAR Ibreve
ENCODING 300
SWIDTH 153 0
DWIDTH 2 0
BBX 4 14 -1 0
BITMAP
1003
496B
0581
0130
0280
0290
01A0
01A0
00A0
00B0
00A0
00A0
00A0
0080
ENDCHAR
STARTCHAR ibreve
ENCODING 301
SWIDTH 132 0
DWIDTH 2 0
BBX 4 11 -1 0
BITMAP
633A
1BC2
0000
0630
0840
0840
0840
0840
0740
0740
0640
ENDCHAR
STARTCHAR Iogonek
ENCODING 302
SWIDTH 153 0
DWIDTH 2 0
BBX 4 14 0 -3
BITMAP
1300
2800
2900
1A00
1A00
0A00
0B00
0A00
0A00
0A00
3B00
B100
B253
4A81
ENDCHAR
STARTCHAR iogonek
ENCODING 303
SWIDTH 132 0
DWIDTH 2 0
BBX 4 15 -1 -4
BITMAP
0300
0400
0000
0630
0840
0840
0840
0840
0740
0740
0740
1B10
5600
2CAA
0120
ENDCHAR
STARTCHAR Idotaccent
ENCODING 304
SWIDTH 153 0
DWIDTH 2 0
BBX 2 13 0 0
BITMAP
24
22
22
55
47
37
38
38
28
28
29
29
18
ENDCHAR
STARTCHAR dotlessi
ENCODING 305
SWIDTH 132 0
DWIDTH 2 0
BBX 2 8 0 0
BITMAP
63
84
84
84
84
74
74
64
ENDCHAR
STARTCHAR Jcircumflex
ENCODING 308
SWIDTH 371 0
DWIDTH 5 0
BBX 6 15 0 -1
BITMAP
006A00
01A380
073067
060004
000800
000910
000830
000750
000570
000390
0001A0
0000B0
6000B0
540190
068920
ENDCHAR
STARTCHAR jcircumflex
ENCODING 309
SWIDTH 112 0
DWIDTH 2 0
BBX 7 18 -3 -5
BITMAP
002D2000
0092A100
03802A10
06100310
00000000
00010000
00092000
00091000
00092000
00083000
00074000
00065000
00056000
00047000
00047000
20065000
2A1B1000
02960000
ENDCHAR
STARTCHAR Kcommaaccent
ENCODING 310
SWIDTH 524 0
DWIDTH 7 0
BBX 8 15 0 -5
BITMAP
41000000
74005400
4603B000
370B2000
29750000
0CA00000
0E400000
0DB98882
0A211110
07100000
00000000
00070000
000D1000
000B0000
00040000
ENDCHAR
STARTCHAR kcommaaccent
ENCODING 311
SWIDTH 428 0
DWIDTH 6 0
BBX 6 16 0 -5
BITMAP
240000
480000
580002
570078
6603E1
660C60
758A00
8BB100
8E1000
98A941
920396
300000
005300
008600
007300
004000
ENDCHAR
STARTCHAR Lacute
ENCODING 313
SWIDTH 537 0
DWIDTH 8 0
BBX 8 10 0 0
BITMAP
0003B000
64072000
86000000
76000000
77000000
68000000
68000011
690018B3
5929A300
4EA30000
ENDCHAR
STARTCHAR lacute
ENCODING 314
SWIDTH 137 0
DWIDTH 2 0
BBX 2 15 0 0
BITMAP
4A
81
00
80
81
72
53
54
45
36
36
37
37
48
35
ENDCHAR
STARTCHAR Lcommaaccent
ENCODING 315
SWIDTH 537 0
DWIDTH 8 0
BBX 8 14 0 -5
BITMAP
64000000
86000000
76000000
77000000
68000000
68000011
690018B3
5929A300
4EA30000
00000000
00071000
000B2000
000A0000
00040000
ENDCHAR
STARTCHAR lcommaaccent
ENCODING 316
SWIDTH 137 0
DWIDTH 2 0
BBX 2 17 0 -5
BITMAP
80
81
72
53
54
45
36
36
37
37
48
35
00
53
86
83
40
ENDCHAR
STARTCHAR Lcaron
ENCODING 317
SWIDTH 537 0
DWIDTH 8 0
BBX 8 14 0 0
BITMAP
11000000
09008300
02982000
00310000
00000000
64000000
86000000
76000000
77000000
68000000
68000011
690018B3
5929A300
4EA30000
ENDCHAR
STARTCHAR Ldot
ENCODING 319
SWIDTH 537 0
DWIDTH 8 0
BBX 8 9 0 0
BITMAP
64000000
86000000
76000000
77000000
68000000
68083011
690018B3
5929A300
4EA30000
ENDCHAR
STARTCHAR ldot
ENCODING 320
SWIDTH 267 0
DWIDTH 4 0
BBX 4 12 0 0
BITMAP
8000
8100
7200
5300
5400
4500
3600
3600
3792
3700
4800
3500
ENDCHAR
STARTCHAR Lslash
ENCODING 321
SWIDTH 537 0
DWIDTH 8 0
BBX 9 9 -1 0
BITMAP
0640000000
0860000000
0760000000
0770000000
0674960000
2AD9400110
1780018B30
05929A3000
04EA300000
ENDCHAR
STARTCHAR lslash
ENCODING 322
SWIDTH 137 0
DWIDTH 2 0
BBX 6 12 -2 0
BITMAP
008000
008100
007200
005300
005400
004500
003600
003864
15BD72
354700
004800
003500
ENDCHAR
STARTCHAR Nacute
ENCODING 323
SWIDTH 541 0
DWIDTH 8 0
BBX 7 12 0 0
BITMAP
002C0000
00630520
00000570
86000380
7F300290
59C10290
474A0190
290771A0
0A0095A0
0B001CB0
0B0002E0
09000040
ENDCHAR
STARTCHAR nacute
ENCODING 324
SWIDTH 483 0
DWIDTH 7 0
BBX 7 10 0 0
BITMAP
001B2000
00451000
8108E600
844B0A00
75A40B00
67C00A20
5B800930
4F400830
2F100740
1C000420
ENDCHAR
STARTCHAR Ncommaaccent
ENCODING 325
SWIDTH 541 0
DWIDTH 8 0
BBX 7 16 0 -5
BITMAP
00000520
00000570
86000380
7F300290
59C10290
474A0190
290771A0
0A0095A0
0B001CB0
0B0002E0
09000040
00000000
00071000
000B3000
000A0000
00040000
ENDCHAR
STARTCHAR ncommaaccent
ENCODING 326
SWIDTH 483 0
DWIDTH 7 0
BBX 7 14 0 -5
BITMAP
00001000
8108E600
844B0A00
75A40B00
67C00A20
5B800930
4F400830
2F100740
1C000420
00000000
00160000
002C0000
00290000
00130000
ENDCHAR
STARTCHAR Ncaron
ENCODING 327
SWIDTH 541 0
DWIDTH 8 0
BBX 7 13 0 0
BITMAP
01000000
05503800
00867520
00040570
86000380
7F300290
59C10290
474A0190
290771A0
0A0095A0
0B001CB0
0B0002E0
09000040
ENDCHAR
STARTCHAR ncaron
ENCODING 328
SWIDTH 483 0
DWIDTH 7 0
BBX 7 12 0 0
BITMAP
01000000
07206600
00974000
00221000
8108E600
844B0A00
75A40B00
67C00A20
5B800930
4F400830
2F100740
1C000420
ENDCHAR
STARTCHAR napostrophe
ENCODING 329
SWIDTH 483 0
DWIDTH 7 0
BBX 7 13 0 0
BITMAP
02500000
04A00000
03700000
02200000
00001000
8108E600
844B0A00
75A40B00
67C00A20
5B800930
4F400830
2F100740
1C000420
ENDCHAR
STARTCHAR Omacron
ENCODING 332
SWIDTH 382 0
DWIDTH 5 0
BBX 6 12 0 0
BITMAP
001355
198765
003400
04C990
0B10B0
3900A2
7500A2
9200B1
B000C0
B00480
841B10
1DC300
ENDCHAR
STARTCHAR omacron
ENCODING 333
SWIDTH 266 0
DWIDTH 4 0
BBX 6 11 -1 0
BITMAP
002452
598762
000000
009400
04A910
072460
0A1370
0B0470
0B1740
0A2B00
06D400
ENDCHAR
STARTCHAR Obreve
ENCODING 334
SWIDTH 382 0
DWIDTH 5 0
BBX 6 13 0 0
BITMAP
010120
0A5B40
018500
003400
04C990
0B10B0
3900A2
7500A2
9200B1
B000C0
B00480
841B10
1DC300
ENDCHAR
STARTCHAR obreve
ENCODING 335
SWIDTH 266 0
DWIDTH 4 0
BBX 4 11 0 0
BITMAP
1003
6779
0670
0940
4A91
7246
A137
B047
B174
A2B0
6D40
ENDCHAR
STARTCHAR Ohungarumlaut
ENCODING 336
SWIDTH 382 0
DWIDTH 5 0
BBX 6 13 0 0
BITMAP
000512
004BB4
002150
003400
04C990
0B10B0
3900A2
7500A2
9200B1
B000C0
B00480
841B10
1DC300
ENDCHAR
STARTCHAR ohungarumlaut
ENCODING 337
SWIDTH 266 0
DWIDTH 4 0
BBX 4 11 0 0
BITMAP
0422
3BA6
1160
0940
4A91
7246
A137
B047
B174
A2B0
6D40
ENDCHAR
STARTCHAR OE
ENCODING 338
SWIDTH 732 0
DWIDTH 10 0
BBX 10 10 0 0
BITMAP
0035903981
04C9FC9200
0B10C30000
3900A20030
7500A33A30
9200BB7000
B000E80003
B004E70196
841B875A20
1DC36D6000
ENDCHAR
STARTCHAR oe
ENCODING 339
SWIDTH 628 0
DWIDTH 9 0
BBX 9 8 0 0
BITMAP
0940176000
4A91A78800
7249A3B300
A13FE81000
B04F400180
B17D100B40
A2C8219500
6C41AA3000
ENDCHAR
STARTCHAR Racute
ENCODING 340
SWIDTH 503 0
DWIDTH 7 0
BBX 7 13 0 0
BITMAP
0003B000
00072000
7739A810
7D831690
77001A20
75059100
78A50000
7C100000
7DB30000
733BA300
63003AA0
63000010
52000000
ENDCHAR
STARTCHAR racute
ENCODING 341
SWIDTH 396 0
DWIDTH 6 0
BBX 6 10 0 0
BITMAP
003B00
007200
000010
816DA1
73D100
58A000
2B8000
0E6000
0D5000
093000
ENDCHAR
STARTCHAR Rcommaaccent
ENCODING 342
SWIDTH 503 0
DWIDTH 7 0
BBX 7 16 0 -5
BITMAP
7739A810
7D831690
77001A20
75059100
78A50000
7C100000
7DB30000
733BA300
63003AA0
63000010
52000000
00000000
00070000
000D0000
000B0000
00040000
ENDCHAR
STARTCHAR rcommaaccent
ENCODING 343
SWIDTH 396 0
DWIDTH 6 0
BBX 6 13 0 -5
BITMAP
000010
816DA1
73D100
58A000
2B8000
0E6000
0D5000
093000
000000
006100
00A300
00A100
004000
ENDCHAR
STARTCHAR Rcaron
ENCODING 344
SWIDTH 503 0
DWIDTH 7 0
BBX 7 15 0 0
BITMAP
01000000
03702910
00678000
00040000
7739A810
7D831690
77001A20
75059100
78A50000
7C100000
7DB30000
733BA300
63003AA0
63000010
52000000
ENDCHAR
STARTCHAR rcaron
ENCODING 345
SWIDTH 396 0
DWIDTH 6 0
BBX 6 12 0 0
BITMAP
100000
370291
067800
004000
000010
816DA1
73D100
58A000
2B8000
0E6000
0D5000
093000
ENDCHAR
STARTCHAR Sacute
ENCODING 346
SWIDTH 541 0
DWIDTH 8 0
BBX 8 12 0 0
BITMAP
0004A000
00082100
0039B900
05800000
3A000000
A1000000
B0000000
3A631000
003579A1
000002C2
0016A910
02951000
ENDCHAR
STARTCHAR sacute
ENCODING 347
SWIDTH 366 0
DWIDTH 5 0
BBX 5 11 0 -1
BITMAP
005800
008100
000000
039B10
2A0000
830000
968C90
2731B0
001B50
03C500
022000
ENDCHAR
STARTCHAR Scircumflex
ENCODING 348
SWIDTH 541 0
DWIDTH 8 0
BBX 8 14 0 0
BITMAP
000B6000
00568400
00A00A30
03401230
0039B900
05800000
3A000000
A1000000
B0000000
3A631000
003579A1
000002C2
0016A910
02951000
ENDCHAR
STARTCHAR scircumflex
ENCODING 349
SWIDTH 366 0
DWIDTH 5 0
BBX 6 12 0 -1
BITMAP
02D200
092A10
3702A1
610030
039B10
2A0000
830000
968C90
2731B0
001B50
03C500
022000
ENDCHAR
STARTCHAR Scedilla
ENCODING 350
SWIDTH 541 0
DWIDTH 8 0
BBX 8 16 0 -5
BITMAP
00001100
0039B900
05800000
3A000000
A1000000
B0000000
3A631000
003579A1
000002C2
0016A910
02954100
00007400
00005E70
000001A8
000039D7
00001310
ENDCHAR
STARTCHAR scedilla
ENCODING 351
SWIDTH 366 0
DWIDTH 5 0
BBX 6 12 0 -5
BITMAP
039B10
2A0000
830000
968C90
2731B0
001B50
03C500
02B000
00D910
0016D1
0059E2
004410
ENDCHAR
STARTCHAR Scaron
ENCODING 352
SWIDTH 541 0
DWIDTH 8 0
BBX 8 14 0 0
BITMAP
01000000
03702900
00678000
00041100
0039B900
05800000
3A000000
A1000000
B0000000
3A631000
003579A1
000002C2
0016A910
02951000
ENDCHAR
STARTCHAR scaron
ENCODING 353
SWIDTH 366 0
DWIDTH 5 0
BBX 5 12 0 -1
BITMAP
100000
540380
086600
013000
039B10
2A0000
830000
968C90
2731B0
001B50
03C500
022000
ENDCHAR
STARTCHAR Tcommaaccent
ENCODING 354
SWIDTH 595 0
DWIDTH 8 0
BBX 10 15 0 -5
BITMAP
0013B88AA5
8BA7C62100
0000740000
0000650000
0000470000
0000390000
00001B0000
00000C0000
00000C0000
00000A0000
0000000000
0000044000
0000067000
0000065000
0000031000
ENDCHAR
STARTCHAR tcommaaccent
ENCODING 355
SWIDTH 268 0
DWIDTH 4 0
BBX 5 16 -1 -5
BITMAP
016000
029000
028000
02B890
3CD610
388000
039000
02A000
01A000
00B000
00B000
002000
005200
009500
008200
004000
ENDCHAR
STARTCHAR Tcaron
ENCODING 356
SWIDTH 595 0
DWIDTH 8 0
BBX 10 15 0 0
BITMAP
0001000000
0007206600
0000974000
0000220000
0000000000
0013B88AA5
8BA7C62100
0000740000
0000650000
0000470000
0000390000
00001B0000
00000C0000
00000C0000
00000A0000
ENDCHAR
STARTCHAR Tbar
ENCODING 358
SWIDTH 595 0
DWIDTH 8 0
BBX 10 10 0 0
BITMAP
0013B88AA5
8BA7C62100
0000740000
0059CCB300
0000460000
0000380000
00001B0000
00000C0000
00000C0000
00000A0000
ENDCHAR
STARTCHAR Utilde
ENCODING 360
SWIDTH 450 0
DWIDTH 6 0
BBX 6 14 0 -2
BITMAP
1AB619
361CB6
000120
210007
84001D
84004C
74006B
74009B
7400CA
64039A
480A2A
09A40A
000009
000004
ENDCHAR
STARTCHAR utilde
ENCODING 361
SWIDTH 387 0
DWIDTH 5 0
BBX 6 11 0 -1
BITMAP
7AA082
909AA0
000300
620250
830480
740480
740680
650B80
374CA0
0CC2C0
010020
ENDCHAR
STARTCHAR Umacron
ENCODING 362
SWIDTH 450 0
DWIDTH 6 0
BBX 6 13 0 -2
BITMAP
002454
398763
210007
84001D
84004C
74006B
74009B
7400CA
64039A
480A2A
09A40A
000009
000004
ENDCHAR
STARTCHAR umacron
ENCODING 363
SWIDTH 387 0
DWIDTH 5 0
BBX 6 12 0 -1
BITMAP
012461
698751
000000
000000
620250
830480
740480
740680
650B80
374CA0
0CC2C0
010020
ENDCHAR
STARTCHAR Ubreve
ENCODING 364
SWIDTH 450 0
DWIDTH 6 0
BBX 6 13 0 -2
BITMAP
010030
0395C0
214817
84001D
84004C
74006B
74009B
7400CA
64039A
480A2A
09A40A
000009
000004
ENDCHAR
STARTCHAR ubreve
ENCODING 365
SWIDTH 387 0
DWIDTH 5 0
BBX 5 12 0 -1
BITMAP
010020
085960
008600
000000
620250
830480
740480
740680
650B80
374CA0
0CC2C0
010020
ENDCHAR
STARTCHAR Uring
ENCODING 366
SWIDTH 450 0
DWIDTH 6 0
BBX 6 14 0 -2
BITMAP
005610
077690
04A950
210007
84001D
84004C
74006B
74009B
7400CA
64039A
480A2A
09A40A
000009
000004
ENDCHAR
STARTCHAR uring
ENCODING 367
SWIDTH 387 0
DWIDTH 5 0
BBX 5 11 0 -1
BITMAP
016500
0C4940
098A20
620250
830480
740480
740680
650B80
374CA0
0CC2C0
010020
ENDCHAR
STARTCHAR Uhungarumlaut
ENCODING 368
SWIDTH 450 0
DWIDTH 6 0
BBX 6 14 0 -2
BITMAP
003320
01C980
011600
210007
84001D
84004C
74006B
74009B
7400CA
64039A
480A2A
09A40A
000009
000004
ENDCHAR
STARTCHAR uhungarumlaut
ENCODING 369
SWIDTH 387 0
DWIDTH 5 0
BBX 5 11 0 -1
BITMAP
015200
0B8C00
025100
620250
830480
740480
740680
650B80
374CA0
0CC2C0
010020
ENDCHAR
STARTCHAR Uogonek
ENCODING 370
SWIDTH 450 0
DWIDTH 6 0
BBX 8 13 0 -4
BITMAP
21000700
84001D00
84004C00
74006B00
74009B00
7400CA00
64039A00
480A2A00
09A40A00
00003E00
0000B500
0000B041
00006C91
ENDCHAR
STARTCHAR uogonek
ENCODING 371
SWIDTH 387 0
DWIDTH 5 0
BBX 7 11 0 -4
BITMAP
62025000
83048000
74048000
74068000
650B8000
374CA000
0CC3D000
010B4000
001A0000
000C9C10
00013100
ENDCHAR
STARTCHAR Wcircumflex
ENCODING 372
SWIDTH 878 0
DWIDTH 12 0
BBX 12 15 0 -1
BITMAP
00000A700000
000047750000
0000A0094000
000240013003
00000000001A
520001900056
770003E30082
1C00087800B0
0B200A1C01A0
0760270A2460
03B073038830
00E1B000AC00
00A890003B00
004F40000100
000200000000
ENDCHAR
STARTCHAR wcircumflex
ENCODING 373
SWIDTH 566 0
DWIDTH 8 0
BBX 8 13 0 0
BITMAP
000C4000
00649300
01901A20
04200220
00000000
00010000
820E3073
481CA074
0C3A6674
07990B85
02E803E5
00B70096
00560001
ENDCHAR
STARTCHAR Ycircumflex
ENCODING 374
SWIDTH 483 0
DWIDTH 7 0
BBX 7 15 0 0
BITMAP
006A0000
01A38000
08306700
06000400
00000250
00000630
81000A00
4A001A00
08706500
00A7C100
000CA000
00094000
000B0000
00290000
00550000
ENDCHAR
STARTCHAR ycircumflex
ENCODING 375
SWIDTH 363 0
DWIDTH 5 0
BBX 5 19 0 -6
BITMAP
04C100
0A2900
650490
600040
000000
000020
300090
8700A0
1C10B0
0490B0
00A7B0
001EA0
000690
000380
000470
000560
000650
000730
000210
ENDCHAR
STARTCHAR Ydieresis
ENCODING 376
SWIDTH 483 0
DWIDTH 7 0
BBX 7 11 0 0
BITMAP
00515250
00514630
81000A00
4A001A00
08706500
00A7C100
000CA000
00094000
000B0000
00290000
00550000
ENDCHAR
STARTCHAR Zacute
ENCODING 377
SWIDTH 670 0
DWIDTH 9 0
BBX 9 13 0 0
BITMAP
0000B30000
0003600000
0000000000
4888888600
011123C700
000006A000
00003C1000
0001C20000
000B400000
0087000000
05A0000000
2C11111130
9FEDDCCBA0
ENDCHAR
STARTCHAR zacute
ENCODING 378
SWIDTH 618 0
DWIDTH 9 0
BBX 9 11 0 -1
BITMAP
0000950000
0001700000
0000000000
0027C70000
5B94B50000
0002C00000
000A300000
002A000000
0075258BB0
00BDB85200
0010000000
ENDCHAR
STARTCHAR Zdotaccent
ENCODING 379
SWIDTH 670 0
DWIDTH 9 0
BBX 9 12 0 0
BITMAP
0000610000
0000400000
4888888600
011123C700
000006A000
00003C1000
0001C20000
000B400000
0087000000
05A0000000
2C11111130
9FEDDCCBA0
ENDCHAR
STARTCHAR zdotaccent
ENCODING 380
SWIDTH 618 0
DWIDTH 9 0
BBX 9 10 0 -1
BITMAP
0001600000
0000300000
0027C70000
5B94B50000
0002C00000
000A300000
002A000000
0075258BB0
00BDB85200
0010000000
ENDCHAR
STARTCHAR Zcaron
ENCODING 381
SWIDTH 670 0
DWIDTH 9 0
BBX 9 14 0 0
BITMAP
0010000000
0018019200
0004881000
0000400000
4888888600
011123C700
000006A000
00003C1000
0001C20000
000B400000
0087000000
05A0000000
2C11111130
9FEDDCCBA0
ENDCHAR
STARTCHAR zcaron
ENCODING 382
SWIDTH 618 0
DWIDTH 9 0
BBX 9 12 0 -1
BITMAP
0100000000
0180192000
0048810000
0004000000
0027C70000
5B94B50000
0002C00000
000A300000
002A000000
0075258BB0
00BDB85200
0010000000
ENDCHAR
STARTCHAR florin
ENCODING 402
SWIDTH 345 0
DWIDTH 5 0
BBX 6 17 -1 -4
BITMAP
000620
004CB0
007650
009400
00A300
00B202
00A7D7
04E510
028200
008300
007400
007500
007600
007700
007700
159700
168100
ENDCHAR
STARTCHAR AEacute
ENCODING 508
SWIDTH 708 0
DWIDTH 10 0
BBX 10 13 0 0
BITMAP
0002B00000
0007200000
0410000020
0A72A29A30
0CB0EB4000
0C63B00000
0B19A00330
2A0BB38500
3909F91000
5B9BF30025
6900E30691
8300B7A500
6100681000
ENDCHAR
STARTCHAR aeacute
ENCODING 509
SWIDTH 705 0
DWIDTH 10 0
BBX 10 10 0 0
BITMAP
00002C0000
0000630000
003814B910
02DB6C2960
0A49C89800
3B0DFB2000
846CF00067
B1C1D003C1
BB40D35A10
8600885000
ENDCHAR
STARTCHAR Oslashacute
ENCODING 510
SWIDTH 382 0
DWIDTH 5 0
BBX 6 13 0 -1
BITMAP
001C10
005400
003660
04CC90
0B1AB0
3918A2
7564A2
9290B1
B190C0
B45480
8B2B10
2FC300
260000
ENDCHAR
STARTCHAR oslashacute
ENCODING 511
SWIDTH 266 0
DWIDTH 4 0
BBX 4 13 0 -2
BITMAP
02B0
0620
0001
0968
4AB3
72C6
A3A7
B867
B974
A6B0
AD40
9000
1000
ENDCHAR
STARTCHAR Scommaaccent
ENCODING 536
SWIDTH 541 0
DWIDTH 8 0
BBX 8 16 0 -5
BITMAP
00001100
0039B900
05800000
3A000000
A1000000
B0000000
3A631000
003579A1
000002C2
0016A910
02951000
00000000
00071000
000B3000
000A0000
00040000
ENDCHAR
STARTCHAR scommaaccent
ENCODING 537
SWIDTH 366 0
DWIDTH 5 0
BBX 5 12 0 -5
BITMAP
039B10
2A0000
830000
968C90
2731B0
001B50
03C500
022000
008000
00D000
00B000
004000
ENDCHAR
STARTCHAR circumflex
ENCODING 710
SWIDTH 390 0
DWIDTH 5 0
BBX 6 4 0 9
BITMAP
01D200
083A10
2802A1
510031
ENDCHAR
STARTCHAR caron
ENCODING 711
SWIDTH 390 0
DWIDTH 5 0
BBX 6 4 0 8
BITMAP
110000
190083
029820
003100
ENDCHAR
STARTCHAR breve
ENCODING 728
SWIDTH 390 0
DWIDTH 5 0
BBX 4 3 1 8
BITMAP
1012
A4C3
2940
ENDCHAR
STARTCHAR dotaccent
ENCODING 729
SWIDTH 128 0
DWIDTH 2 0
BBX 2 2 0 7
BITMAP
52
31
ENDCHAR
STARTCHAR ring
ENCODING 730
SWIDTH 266 0
DWIDTH 4 0
BBX 4 3 0 7
BITMAP
1560
A586
7993
ENDCHAR
STARTCHAR ogonek
ENCODING 731
SWIDTH 366 0
DWIDTH 5 0
BBX 4 5 1 -4
BITMAP
0200
3A00
9200
8896
0550
ENDCHAR
STARTCHAR tilde
ENCODING 732
SWIDTH 458 0
DWIDTH 6 0
BBX 6 3 0 7
BITMAP
2BC428
542CC4
000220
ENDCHAR
STARTCHAR hungarumlaut
ENCODING 733
SWIDTH 239 0
DWIDTH 3 0
BBX 4 3 0 6
BITMAP
0620
88C1
2320
ENDCHAR
STARTCHAR Wgrave
ENCODING 7808
SWIDTH 878 0
DWIDTH 12 0
BBX 12 15 0 -1
BITMAP
000002000000
000005800000
000000700000
000000000003
00000000001A
520001900056
770003E30082
1C00087800B0
0B200A1C01A0
0760270A2460
03B073038830
00E1B000AC00
00A890003B00
004F40000100
000200000000
ENDCHAR
STARTCHAR wgrave
ENCODING 7809
SWIDTH 566 0
DWIDTH 8 0
BBX 8 11 0 0
BITMAP
00020000
000C1000
00034000
00010000
820E3073
481CA074
0C3A6674
07990B85
02E803E5
00B70096
00560001
ENDCHAR
STARTCHAR Wacute
ENCODING 7810
SWIDTH 878 0
DWIDTH 12 0
BBX 12 14 0 -1
BITMAP
000007700000
000008000000
000000000003
00000000001A
520001900056
770003E30082
1C00087800B0
0B200A1C01A0
0760270A2460
03B073038830
00E1B000AC00
00A890003B00
004F40000100
000200000000
ENDCHAR
STARTCHAR wacute
ENCODING 7811
SWIDTH 566 0
DWIDTH 8 0
BBX 8 10 0 0
BITMAP
0001C000
00053000
00010000
820E3073
481CA074
0C3A6674
07990B85
02E803E5
00B70096
00560001
ENDCHAR
STARTCHAR Wdieresis
ENCODING 7812
SWIDTH 878 0
DWIDTH 12 0
BBX 12 13 0 -1
BITMAP
000005140000
000005240003
00000000001A
520001900056
770003E30082
1C00087800B0
0B200A1C01A0
0760270A2460
03B073038830
00E1B000AC00
00A890003B00
004F40000100
000200000000
ENDCHAR
STARTCHAR wdieresis
ENCODING 7813
SWIDTH 566 0
DWIDTH 8 0
BBX 8 11 0 0
BITMAP
00243200
00234200
00000000
00010000
820E3073
481CA074
0C3A6674
07990B85
02E803E5
00B70096
00560001
ENDCHAR
STARTCHAR Ygrave
ENCODING 7922
SWIDTH 483 0
DWIDTH 7 0
BBX 7 14 0 0
BITMAP
00100000
00490000
00070000
00000250
00000630
81000A00
4A001A00
08706500
00A7C100
000CA000
00094000
000B0000
00290000
00550000
ENDCHAR
STARTCHAR ygrave
ENCODING 7923
SWIDTH 363 0
DWIDTH 5 0
BBX 5 17 0 -6
BITMAP
020000
059000
007000
000020
300090
8700A0
1C10B0
0490B0
00A7B0
001EA0
000690
000380
000470
000560
000650
000730
000210
ENDCHAR
STARTCHAR endash
ENCODING 8211
SWIDTH 399 0
DWIDTH 6 0
BBX 6 3 0 2
BITMAP
000262
26BA61
540000
ENDCHAR
STARTCHAR emdash
ENCODING 8212
SWIDTH 549 0
DWIDTH 8 0
BBX 7 3 0 2
BITMAP
00000230
258BBA70
55200000
ENDCHAR
STARTCHAR quoteleft
ENCODING 8216
SWIDTH 155 0
DWIDTH 2 0
BBX 2 5 0 4
BITMAP
62
76
56
35
01
ENDCHAR
STARTCHAR quoteright
ENCODING 8217
SWIDTH 155 0
DWIDTH 2 0
BBX 2 5 0 4
BITMAP
62
76
56
35
01
ENDCHAR
STARTCHAR quotesinglbase
ENCODING 8218
SWIDTH 155 0
DWIDTH 2 0
BBX 2 4 0 0
BITMAP
55
58
37
17
ENDCHAR
STARTCHAR quotedblleft
ENCODING 8220
SWIDTH 212 0
DWIDTH 3 0
BBX 3 4 0 7
BITMAP
9250
7370
6470
4340
ENDCHAR
STARTCHAR quotedblright
ENCODING 8221
SWIDTH 212 0
DWIDTH 3 0
BBX 3 4 0 7
BITMAP
9250
7370
6470
4340
ENDCHAR
STARTCHAR quotedblbase
ENCODING 8222
SWIDTH 212 0
DWIDTH 3 0
BBX 3 4 0 0
BITMAP
8250
7380
6480
3440
ENDCHAR
STARTCHAR dagger
ENCODING 8224
SWIDTH 268 0
DWIDTH 4 0
BBX 5 12 -1 -1
BITMAP
016000
029000
028000
02B890
3CD610
388000
039000
02A000
01A000
00B000
00B000
002000
ENDCHAR
STARTCHAR daggerdbl
ENCODING 8225
SWIDTH 326 0
DWIDTH 5 0
BBX 5 12 0 -1
BITMAP
043000
065000
074000
078950
6EB400
5A7850
6DA410
274000
065000
056000
046000
012000
ENDCHAR
STARTCHAR bullet
ENCODING 8226
SWIDTH 189 0
DWIDTH 3 0
BBX 3 3 0 3
BITMAP
0100
4F30
3B10
ENDCHAR
STARTCHAR ellipsis
ENCODING 8230
SWIDTH 387 0
DWIDTH 5 0
BBX 5 1 0 0
BITMAP
7492B0
ENDCHAR
STARTCHAR guilsinglleft
ENCODING 8249
SWIDTH 409 0
DWIDTH 6 0
BBX 6 8 0 1
BITMAP
000037
0005C1
008A10
1A6000
3C2000
03C810
0006D3
000010
ENDCHAR
STARTCHAR guilsinglright
ENCODING 8250
SWIDTH 450 0
DWIDTH 6 0
BBX 6 9 0 1
BITMAP
010000
3D6000
018C40
0002A5
000093
001A60
02C500
2C3000
210000
ENDCHAR
STARTCHAR fraction
ENCODING 8260
SWIDTH 306 0
DWIDTH 4 0
BBX 4 12 0 -2
BITMAP
0008
0028
0073
00A0
0190
0540
0900
0900
4500
8100
9000
1000
ENDCHAR
STARTCHAR Euro
ENCODING 8364
SWIDTH 589 0
DWIDTH 8 0
BBX 8 12 0 -1
BITMAP
00001200
0003BA30
000A1010
00380000
00820000
48DA8100
24A01200
15C99300
78700007
01A00197
007BCC60
00001000
ENDCHAR
STARTCHAR trademark
ENCODING 8482
SWIDTH 1278 0
DWIDTH 18 0
BBX 18 11 0 0
BITMAP
000000002810000420
0013B89AAE90000B50
8BA7C6210AA3001A60
00007400092A006570
000065000909309090
000047000A02A19090
000039000B00A94090
00001B000B202C00A0
00000C000B300000A1
00000C000A40000094
00000A000940000075
ENDCHAR
STARTCHAR minus
ENCODING 8722
SWIDTH 358 0
DWIDTH 5 0
BBX 5 2 0 3
BITMAP
146750
254320
ENDCHAR
STARTCHAR commaaccent
ENCODING 63171
SWIDTH 450 0
DWIDTH 6 0
BBX 2 4 2 -5
BITMAP
53
86
83
40
ENDCHAR
STARTCHAR fi
ENCODING 64257
SWIDTH 409 0
DWIDTH 6 0
BBX 5 14 0 -1
BITMAP
006200
04CB00
076520
094050
0A3000
0B20A0
0A7DE0
4E62C0
2820C0
0830C0
0750B0
0660B0
0560A0
000010
ENDCHAR
STARTCHAR fl
ENCODING 64258
SWIDTH 416 0
DWIDTH 6 0
BBX 6 13 0 0
BITMAP
006200
04CB50
076590
094090
0A3080
0B2091
0A7DD2
4E6272
282073
083063
075074
066074
056085
ENDCHAR
STARTCHAR .notdef
ENCODING -1
SWIDTH 450 0
DWIDTH 6 0
BBX 1 1 0 0
BITMAP
00
ENDCHAR
STARTCHAR .null
ENCODING -1
SWIDTH 0 0
DWIDTH 0 0
BBX 1 1 0 0
BITMAP
00
ENDCHAR
STARTCHAR nonmarkingreturn
ENCODING -1
SWIDTH 450 0
DWIDTH 6 0
BBX 1 1 0 0
BITMAP
00
ENDCHAR
ENDFONT
